<?xml version="1.0" encoding="UTF-8" standalone="no"?>
<svg
  xmlns="http://www.w3.org/2000/svg"
  xmlns:svg="http://www.w3.org/2000/svg"
  width="128px"
  height="128px"
  viewBox="0 0 750 750"
  style="shape-rendering: geometricPrecision">
<title>foxcat-smiling-open-mouth</title>
<g id="foxcat-smiling-open-mouth" transform="translate(0,8.508816)" fill="none">>
<g id="Body">
  <path id="body"
    fill="#ff9437"
    d="M227.906579,87.6908427 C303.535374,48.6398489 398.330872,32.7854381 512.804599,53.8564005 C545.560576,59.8653664 575.596087,70.9374708 602.462903,86.1209744 C630.354683,64.2471357 659.533716,48.0372055 690,37.491184 C742,19.491184 752,39.491184 742,95.491184 C736.144211,128.283603 730.545599,171.877455 725.204164,226.27274 C751.039563,288.613086 756.817609,361.337947 737.695901,434.165265 C718.989274,505.307678 743.284358,511.074392 743.225532,549.205313 C743.225532,554.207054 742.578448,559.149951 741.284279,564.034004 C722.342348,637.235958 564.747842,694.491184 373.093157,694.491184 C168.614433,694.491184 2.90195627,629.409704 2.90195627,549.205313 C-8.29960895,450.296204 12.8565239,337.343185 67.6021059,243.405026 C66.5739942,140.127016 66.7066256,79.8224017 68,62.491184 C70.1617413,33.5238511 84,-23.508816 137,10.491184 C169.903818,31.5992934 200.206011,57.332513 227.906579,87.6908427 Z" />
  <path id="stomach-floof"
     fill="white"
     d="m 130.76404,508.45284 c 14.29941,6.36722 21.31003,11.97972 32.56986,26.13557 -13.29696,-33.30484 -14.39322,-89.96881 13.68122,-144.85363 32.91338,-64.34482 87.57434,-80.55096 146.5065,-80.14972 62.91359,0.42835 128.61269,39.44116 152.42635,104.49291 24.40944,66.67928 20.55132,124.34977 -0.48903,142.28002 21.22564,-5.44592 25.18294,-7.56864 38.93823,-8.01428 2.89365,46.54282 -29.82516,116.32857 -52.21028,141.99147 -6.78549,7.77907 -78.32115,14.25657 -134.30771,10.15308 -55.98656,-4.10349 -156.12257,-20.30664 -161.52071,-30.73035 -27.18668,-52.49698 -31.1418,-104.12292 -35.59443,-161.30507 z" />
  <path id="ear-floof-right"
     fill="white"
     d="m 86.821327,189.84182 c -2.951536,-27.83002 -6.195892,-84.8663 -1.571836,-119.620354 17.737959,2.729983 79.762999,29.114997 111.380399,65.136254 -15.74992,1.35331 -24.50688,3.03852 -40.07139,-1.33572 1.52671,19.89513 2.2745,41.88299 -9.00276,63.9186 -12.29911,-4.39435 -22.02535,-17.01931 -33.2678,-32.06753 -7.34642,8.68213 -10.58383,15.83298 -27.466613,23.96875 z" />
  <path id="ear-floof-left"
     fill="white"
     d="m 608.41714,149.43651 c 17.6982,-24.04282 102.24252,-61.18817 115.53916,-53.094576 7.68035,4.674986 -7.34642,103.517736 -18.03212,119.546286 -8.34821,-7.68034 -14.02499,-14.35891 -21.37141,-26.38032 -6.67856,8.01427 -14.02498,17.03034 -38.40174,28.04996 -4.34106,-25.71247 -6.57769,-35.68558 -2.3375,-65.44992 -11.5386,3.82448 -23.7089,1.33571 -35.39639,-2.67143 z" />
  <path id="ear-contour-right"
     fill="#2f2f2f"
     d="m 75.638882,23.484626 c -7.058047,20.313074 4.962921,18.307604 19.906475,23.499768 16.508913,5.736051 45.949023,17.283979 79.498343,33.544073 27.21515,13.190162 50.14602,28.648363 58.87299,25.324073 8.72697,-3.32429 -3.65977,-15.470622 -6.01011,-18.161697 C 220.88076,79.646485 149.29663,-2.4670962 109.77265,-4.4837219 94.00497,-5.2882337 81.68059,6.0965762 75.638882,23.484626 Z" />
  <path id="ear-contour-left"
     fill="#2f2f2f"
     d="m 600.99085,97.361893 c 2.92876,3.431327 24.86778,-2.333474 33.88417,-5.426823 13.6505,-4.683223 43.15681,-18.23273 61.62136,-23.394206 15.20519,-4.250373 37.86433,-9.849214 44.55572,-17.605268 5.51594,-6.39358 -1.71708,-21.05348 -16.11929,-22.858713 -14.40222,-1.805233 -45.16642,6.196137 -67.20955,18.254884 -22.04313,12.058748 -44.9725,27.148275 -55.26036,39.789207 -2.90476,3.569139 -4.4008,7.809582 -1.47205,11.240919 z" />
</g>
<g id="eyes" transform="matrix(3.969646,0,0,3.969646,138.61688,69.386045)">
  <path id="right-eye"
     d="m 26.6,37.84 c 0.14,-0.31 3.43,-7.63 11.23,-7.8 h 0.05 c 7.84,-0.14 11.38,7.1 11.53,7.41 0.66,1.38 0.09,3.06 -1.27,3.74 -0.37,0.19 -0.77,0.28 -1.15,0.29 -1.03,0.02 -2.04,-0.56 -2.53,-1.57 -0.11,-0.2 -2.22,-4.35 -6.48,-4.26 h -0.02 c -4.28,0.09 -6.24,4.3 -6.31,4.48 -0.64,1.4 -2.27,2.02 -3.66,1.4 -1.37,-0.65 -2,-2.28 -1.39,-3.69 z"
     fill="#2f2f2f" />
  <path id="left-eye"
     d="m 86.03,50.01 c -0.1,0.01 -0.21,0.01 -0.31,0.02 -1.38,0.03 -2.59,-1 -2.78,-2.44 -0.03,-0.2 -0.85,-5.58 -5.64,-7.09 -4.89,-1.51 -8.66,2.6 -8.7,2.64 -1.04,1.15 -2.77,1.23 -3.9,0.19 -1.12,-1.04 -1.21,-2.81 -0.18,-3.95 0.26,-0.29 6.2,-6.79 14.4,-4.23 8.22,2.58 9.45,11.35 9.49,11.73 0.19,1.52 -0.88,2.93 -2.38,3.13 z"
     fill="#2f2f2f" />
</g>
<g id="whiskers" fill="#2f2f2f">
  <path id="right-bottom-wisker" d="m 517,455.491 c 2.53627,-3.91968 24.1879,8.93954 54,29 29.8121,20.0605 60.6064,34.9719 58,39 -2.60641,4.02808 -42.8053,-5.70076 -70,-24 -27.1947,-18.2992 -44.5363,-40.0803 -42,-44 z" />
  <path id="right-top-wisker" d="m 525,400.491 c -2,-6 -2,-10 23,-9 25,1 83,16 102,32 4.69918,3.9572 -37.1292,-0.87484 -68,-7 -30.8708,-6.12517 -55,-10 -57,-16 z" />
  <path id="left-bottom-wisker" d="m 151,403.491 c -19,21 -52,36 -84,53 -32,17 -49.439,8.26343 -14,-13 35.439,-21.2634 84,-43 98,-40 z" />
  <path id="left-top-wisker" d="m 156,343.491 c -53,-2 -107,5 -116,16 0,3.43817 103,3 116,0 13,-3 8.6364,-15.6741 0,-16 z" />
</g>

<g id="mouth" transform="matrix(3.969646,0,0,3.969646,112.34299,167.31598)">
  <path fill="#ed6c30" d="m 73.18,80.85 c -8.91,6.22 -21.98,5.97 -31.56,2.35 -5.1,-2 -12.43,-7.38 -15.54,-15.87 -1.35,-3.68 -1.57,-9.85 -0.23,-13.41 1.05,-2.84 3.48,-3.98 5.93,-4.18 3.79,-0.3 8.38,3.48 12.13,4.88 7.09,2.67 13.86,2.6 22.11,1.51 5.29,-0.99 10.7,-2.9 15.26,0.01 2.72,1.79 3.28,5.62 2.91,8.91 -0.56,4.92 -4.21,11.04 -11.01,15.8 z" />
</g>
</g>
</svg>
