<?xml version="1.0" encoding="UTF-8" standalone="no"?>
<svg
  xmlns="http://www.w3.org/2000/svg"
  xmlns:svg="http://www.w3.org/2000/svg"
  width="128px"
  height="128px"
  viewBox="0 0 750 750"
  style="shape-rendering: geometricPrecision">
<title>foxcat-autism</title>
<g id="foxcat-autism">
<g id="foxcatblob" transform="translate(0,8.508816)" fill="none">
<g id="Body">
  <clipPath id="body-mask" maskUnits="userSpaceOnUse">
    <use href="#body" height="100%" width="100%" />
  </clipPath>

  <path id="body"
    fill="#ff9437"
    d="M227.906579,87.6908427 C303.535374,48.6398489 398.330872,32.7854381 512.804599,53.8564005 C545.560576,59.8653664 575.596087,70.9374708 602.462903,86.1209744 C630.354683,64.2471357 659.533716,48.0372055 690,37.491184 C742,19.491184 752,39.491184 742,95.491184 C736.144211,128.283603 730.545599,171.877455 725.204164,226.27274 C751.039563,288.613086 756.817609,361.337947 737.695901,434.165265 C718.989274,505.307678 743.284358,511.074392 743.225532,549.205313 C743.225532,554.207054 742.578448,559.149951 741.284279,564.034004 C722.342348,637.235958 564.747842,694.491184 373.093157,694.491184 C168.614433,694.491184 2.90195627,629.409704 2.90195627,549.205313 C-8.29960895,450.296204 12.8565239,337.343185 67.6021059,243.405026 C66.5739942,140.127016 66.7066256,79.8224017 68,62.491184 C70.1617413,33.5238511 84,-23.508816 137,10.491184 C169.903818,31.5992934 200.206011,57.332513 227.906579,87.6908427 Z" />
  <path id="stomach-floof"
     fill="white"
     d="m 130.76404,508.45284 c 14.29941,6.36722 21.31003,11.97972 32.56986,26.13557 -13.29696,-33.30484 -14.39322,-89.96881 13.68122,-144.85363 32.91338,-64.34482 87.57434,-80.55096 146.5065,-80.14972 62.91359,0.42835 128.61269,39.44116 152.42635,104.49291 24.40944,66.67928 20.55132,124.34977 -0.48903,142.28002 21.22564,-5.44592 25.18294,-7.56864 38.93823,-8.01428 2.89365,46.54282 -29.82516,116.32857 -52.21028,141.99147 -6.78549,7.77907 -78.32115,14.25657 -134.30771,10.15308 -55.98656,-4.10349 -156.12257,-20.30664 -161.52071,-30.73035 -27.18668,-52.49698 -31.1418,-104.12292 -35.59443,-161.30507 z" />
  <path id="ear-floof-right"
     fill="white"
     d="m 86.821327,189.84182 c -2.951536,-27.83002 -6.195892,-84.8663 -1.571836,-119.620354 17.737959,2.729983 79.762999,29.114997 111.380399,65.136254 -15.74992,1.35331 -24.50688,3.03852 -40.07139,-1.33572 1.52671,19.89513 2.2745,41.88299 -9.00276,63.9186 -12.29911,-4.39435 -22.02535,-17.01931 -33.2678,-32.06753 -7.34642,8.68213 -10.58383,15.83298 -27.466613,23.96875 z" />
  <path id="ear-floof-left"
     fill="white"
     d="m 608.41714,149.43651 c 17.6982,-24.04282 102.24252,-61.18817 115.53916,-53.094576 7.68035,4.674986 -7.34642,103.517736 -18.03212,119.546286 -8.34821,-7.68034 -14.02499,-14.35891 -21.37141,-26.38032 -6.67856,8.01427 -14.02498,17.03034 -38.40174,28.04996 -4.34106,-25.71247 -6.57769,-35.68558 -2.3375,-65.44992 -11.5386,3.82448 -23.7089,1.33571 -35.39639,-2.67143 z" />
  <path id="ear-contour-right"
     clip-path="url(#body-mask)"
     fill="#2f2f2f"
     d="m 49.78886,31.403334 c -14.291788,16.068036 29.713161,15.521214 44.656715,20.713378 16.508915,5.736051 46.315615,22.782892 79.864935,39.042986 27.21515,13.190162 50.87921,18.017132 59.60618,14.692842 8.72697,-3.32429 -3.65977,-15.470622 -6.01011,-18.161697 C 220.88076,79.646485 132.3567,-13.101065 107.68286,-9.8376395 92.030976,-7.7674818 64.080648,15.335297 49.78886,31.403334 Z" />
  <path id="ear-contour-left"
     clip-path="url(#body-mask)"
     fill="#2f2f2f"
     d="m 594.39216,106.52675 c 2.92876,3.43133 25.85762,-2.01145 40.48286,-5.79342 13.88328,-3.590097 68.97817,-20.526141 87.61912,-25.009 18.28567,-4.397421 25.72303,-3.010045 27.17463,-7.265397 4.33854,-12.718435 -3.67321,-30.888356 -11.35356,-36.899063 -7.68035,-6.010708 -53.56577,-1.356278 -76.30259,12.021414 -6.36805,3.746778 -47.11352,32.005262 -59.54972,42.53969 -12.4362,10.534428 -10.99949,16.974436 -8.07074,20.405776 z" />
</g>
<g id="eyes" transform="translate(33,190.49118)">
  <path id="left-eye"
     d="m 523.3311,109.83385 c -7.39991,34.70761 -36.72804,57.98293 -65.51305,51.95873 -28.98868,-6.09266 -46.4362,-39.1573 -39.17206,-73.864914 7.39992,-34.776069 36.72805,-58.05139 65.64884,-51.958733 28.8529,5.955745 46.36831,38.951935 39.03627,73.864917 z"
     style="fill:#2f2f2f" />
  <path id="right-eye"
     d="M 125.5521,36.726728 C 140.80142,6.4279134 173.70785,-7.9206442 199.0565,4.4257891 224.33827,16.83896 232.56487,51.342235 217.38244,81.574313 202.2,111.80639 169.36045,126.22168 144.0118,113.80851 118.73004,101.39534 110.43654,66.82533 125.5521,36.726728 Z"
     style="fill:#2f2f2f" />
</g>
<g id="whiskers" transform="translate(33,190.49118)">
  <g transform="translate(0.391648,152.65947)"
     style="fill:#2f2f2f">
    <path id="Right-bottom-wisker"
       d="m 483.60835,112.34053 c 2.53627,-3.91968 24.18794,8.93954 54,29 29.81207,20.06046 60.60641,34.97192 58,39 -2.60641,4.02808 -42.80529,-5.70076 -70,-24 -27.19471,-18.29924 -44.53626,-40.08031 -42,-44 z"/>
    <path id="Right-top-wisker"
       d="m 491.60835,57.340531 c -2,-6 -2,-10 23,-9 25,1 83,16 102,32 4.69918,3.957205 -37.12916,-0.874835 -68,-7 -30.87083,-6.125166 -55,-10 -57,-16 z"/>
    <path id="Left-bottom-wisker"
       d="m 117.60835,60.340531 c -18.999998,21 -51.999998,36 -83.999998,52.999999 -32.0000001,17 -49.43904,8.26343 -14,-13 35.43904,-21.263423 83.999998,-42.999999 97.999998,-39.999999 z"/>
    <path id="Left-top-wisker"
       d="M 122.60835,0.34053071 C 69.608352,-1.6594693 15.608352,5.3405307 6.6083519,16.340531 c 0,3.43817 102.9999981,3 115.9999981,0 13,-3 8.6364,-15.67409837 0,-16.00000029 z"/>
  </g>
</g>
<g id="mouth" transform="translate(33,190.49118)">
  <path
     d="m 196,176 c 13.33333,47.33333 23,71.33333 29,72 6,0.66667 26.66667,-18 62,-56 27.33333,46 43.66667,71.33333 49,76 5.33333,4.66667 28,-15.66667 68,-61"
     style="stroke:#2f2f2f;stroke-width:30;stroke-linecap:round;stroke-linejoin:round" />
</g>
<g>
  <g transform="translate(13 255)">
    <defs>
      <path d="M523.079 66.934c54.087 54.088 33.802 149.947-23.638 225.507C403 420 266 495 217.379 493.369c-48.621-1.631-209.603-222.173-215.99-313.27C-5 89 20 46 74.858 14.147 142.991-25.411 237 26 284.876 110.508 349 26 468.99 12.847 523.079 66.934z" id="a"/>
    </defs>
    <mask id="b" fill="#fff">
      <use href="#a"/>
    </mask>
    <use fill="#D8D8D8" href="#a"/>
    <g mask="url(#b)">
      <path fill="#C00" fill-rule="nonzero" d="M-5.418-45.038L291.274 1.953 212.588 498.76-84.105 451.77z"/>
      <path fill="#00C" fill-rule="nonzero" d="M290.001 1.752l296.693 46.991-78.687 496.807-296.692-46.991z"/>
      <path fill="#0C0" fill-rule="nonzero" d="M191.952-13.778l197.371 31.26-78.687 496.808-197.37-31.26z"/>
      <path d="M251.534 250.454c139.353 191.991 191.861-139.532 0 0s-139.353-191.991 0 0z" stroke="#FFF" stroke-width="64"/>
    </g>
  </g>
  <path d="M74.715 319.095c-27.016 25.776-34 56-25 79s44 23 52-3 18-38 51-45 31-48 6-56-56.985-.776-84 25z" fill-opacity=".34" fill="#FFF"/>
</g>
<g>
  <path id="right-arm"
     fill="#ff9437"
     stroke="#2f2f2f"
     stroke-width="15"
     stroke-linecap="round"
     stroke-linejoin="round"
     d="m 26,497 c 28,-5.333 50.637793,-25.31701 66,-45 -7,-61 52,-66 64,-19 63.80196,9.86059 68.78522,67.11197 61.05929,97.66035 -7.72593,30.54838 -53.61717,82.74473 -114.98062,91.86997" />
  <path id="left-arm"
     fill="#ff9437"
     stroke="#2f2f2f"
     stroke-width="15"
     stroke-linecap="round"
     stroke-linejoin="round"
     d="m 530.65051,531.0434 c -31.77834,-10.52821 -57.87348,-26.52885 -70.16154,-44.02855 7,-61 -52,-66 -64,-19 -63.80196,9.86059 -75.80247,57.9289 -62.09881,96.7829 13.70366,38.854 92.24655,94.12136 161.16667,103.24661" />
</g>

</g>
</g>
</svg>
