<?xml version="1.0" encoding="UTF-8" standalone="no"?>
<svg
  xmlns="http://www.w3.org/2000/svg"
  xmlns:svg="http://www.w3.org/2000/svg"
  width="128px"
  height="128px"
  viewBox="0 0 750 750"
  style="shape-rendering: geometricPrecision">
<title>foxcat-grinning</title>
<g id="foxcat-grinning" style="display:inline;opacity:1;fill:none;fill-rule:evenodd;stroke:none;stroke-width:1">
<g id="foxcatblob" transform="translate(0,8.508816)">
<g id="Body">
  <clipPath id="body-mask" maskUnits="userSpaceOnUse">
    <use href="#body" height="100%" width="100%" />
  </clipPath>

  <path id="body"
    fill="#ff9437"
    d="M227.906579,87.6908427 C303.535374,48.6398489 398.330872,32.7854381 512.804599,53.8564005 C545.560576,59.8653664 575.596087,70.9374708 602.462903,86.1209744 C630.354683,64.2471357 659.533716,48.0372055 690,37.491184 C742,19.491184 752,39.491184 742,95.491184 C736.144211,128.283603 730.545599,171.877455 725.204164,226.27274 C751.039563,288.613086 756.817609,361.337947 737.695901,434.165265 C718.989274,505.307678 743.284358,511.074392 743.225532,549.205313 C743.225532,554.207054 742.578448,559.149951 741.284279,564.034004 C722.342348,637.235958 564.747842,694.491184 373.093157,694.491184 C168.614433,694.491184 2.90195627,629.409704 2.90195627,549.205313 C-8.29960895,450.296204 12.8565239,337.343185 67.6021059,243.405026 C66.5739942,140.127016 66.7066256,79.8224017 68,62.491184 C70.1617413,33.5238511 84,-23.508816 137,10.491184 C169.903818,31.5992934 200.206011,57.332513 227.906579,87.6908427 Z" />
  <path id="stomach-floof"
     fill="white"
     d="m 130.76404,508.45284 c 14.29941,6.36722 21.31003,11.97972 32.56986,26.13557 -13.29696,-33.30484 -14.39322,-89.96881 13.68122,-144.85363 32.91338,-64.34482 87.57434,-80.55096 146.5065,-80.14972 62.91359,0.42835 128.61269,39.44116 152.42635,104.49291 24.40944,66.67928 20.55132,124.34977 -0.48903,142.28002 21.22564,-5.44592 25.18294,-7.56864 38.93823,-8.01428 2.89365,46.54282 -29.82516,116.32857 -52.21028,141.99147 -6.78549,7.77907 -78.32115,14.25657 -134.30771,10.15308 -55.98656,-4.10349 -156.12257,-20.30664 -161.52071,-30.73035 -27.18668,-52.49698 -31.1418,-104.12292 -35.59443,-161.30507 z" />
  <path id="ear-floof-right"
     fill="white"
     d="m 86.821327,189.84182 c -2.951536,-27.83002 -6.195892,-84.8663 -1.571836,-119.620354 17.737959,2.729983 79.762999,29.114997 111.380399,65.136254 -15.74992,1.35331 -24.50688,3.03852 -40.07139,-1.33572 1.52671,19.89513 2.2745,41.88299 -9.00276,63.9186 -12.29911,-4.39435 -22.02535,-17.01931 -33.2678,-32.06753 -7.34642,8.68213 -10.58383,15.83298 -27.466613,23.96875 z" />
  <path id="ear-floof-left"
     fill="white"
     d="m 608.41714,149.43651 c 17.6982,-24.04282 102.24252,-61.18817 115.53916,-53.094576 7.68035,4.674986 -7.34642,103.517736 -18.03212,119.546286 -8.34821,-7.68034 -14.02499,-14.35891 -21.37141,-26.38032 -6.67856,8.01427 -14.02498,17.03034 -38.40174,28.04996 -4.34106,-25.71247 -6.57769,-35.68558 -2.3375,-65.44992 -11.5386,3.82448 -23.7089,1.33571 -35.39639,-2.67143 z" />
  <path id="ear-contour-right"
     clip-path="url(#body-mask)"
     fill="#2f2f2f"
     d="m 49.78886,31.403334 c -14.291788,16.068036 29.713161,15.521214 44.656715,20.713378 16.508915,5.736051 46.315615,22.782892 79.864935,39.042986 27.21515,13.190162 50.87921,18.017132 59.60618,14.692842 8.72697,-3.32429 -3.65977,-15.470622 -6.01011,-18.161697 C 220.88076,79.646485 132.3567,-13.101065 107.68286,-9.8376395 92.030976,-7.7674818 64.080648,15.335297 49.78886,31.403334 Z" />
  <path id="ear-contour-left"
     clip-path="url(#body-mask)"
     fill="#2f2f2f"
     d="m 594.39216,106.52675 c 2.92876,3.43133 25.85762,-2.01145 40.48286,-5.79342 13.88328,-3.590097 68.97817,-20.526141 87.61912,-25.009 18.28567,-4.397421 25.72303,-3.010045 27.17463,-7.265397 4.33854,-12.718435 -3.67321,-30.888356 -11.35356,-36.899063 -7.68035,-6.010708 -53.56577,-1.356278 -76.30259,12.021414 -6.36805,3.746778 -47.11352,32.005262 -59.54972,42.53969 -12.4362,10.534428 -10.99949,16.974436 -8.07074,20.405776 z" />
</g>
<g>
	<defs>
		<path id="SVGID_1_" d="M22.94,53.34c0,0-0.21,27.63,41.8,27.63c42.02,0,41.85-27.63,41.85-27.63s-12.73,3.58-41.82,3.58
			C35.67,56.92,22.94,53.34,22.94,53.34"/>
	</defs>
	<use href="#SVGID_1_"  overflow="visible" fill="#FFFFFF"/>
	<clipPath id="SVGID_2_">
		<use href="#SVGID_1_"  overflow="visible"/>
	</clipPath>
	<path clip-path="url(#SVGID_2_)" fill="#2F2F2F" d="M34.7,93.17c-1.07,0-1.96-0.89-1.96-2V50c0-1.11,0.88-2.01,1.96-2.01
		c1.08,0,1.94,0.9,1.94,2.01v41.17C36.64,92.28,35.78,93.17,34.7,93.17z"/>
	<path clip-path="url(#SVGID_2_)" fill="#2F2F2F" d="M49.68,93.18c-1.08,0-1.95-0.9-1.95-2.01V50c0-1.11,0.88-2.01,1.95-2.01
		c1.08,0,1.94,0.9,1.94,2.01v41.18C51.62,92.28,50.75,93.18,49.68,93.18z"/>
	<path clip-path="url(#SVGID_2_)" fill="#2F2F2F" d="M64.65,93.18c-1.07,0-1.95-0.9-1.95-2.01V50c0-1.11,0.88-2.01,1.95-2.01
		c1.08,0,1.95,0.9,1.95,2.01v41.18C66.6,92.28,65.73,93.18,64.65,93.18z"/>
	<path clip-path="url(#SVGID_2_)" fill="#2F2F2F" d="M79.62,93.18c-1.08,0-1.94-0.9-1.94-2.01V50c0-1.11,0.86-2.01,1.94-2.01
		s1.95,0.9,1.95,2.01v41.18C81.57,92.28,80.7,93.18,79.62,93.18z"/>
	<path clip-path="url(#SVGID_2_)" fill="#2F2F2F" d="M94.59,93.18c-1.08,0-1.95-0.9-1.95-2.01V50c0-1.11,0.87-2.01,1.95-2.01
		c1.08,0,1.94,0.9,1.94,2.01v41.18C96.53,92.28,95.66,93.18,94.59,93.18z"/>
</g>
<path fill="#2F2F2F" d="M41.83,47.52c-4.58-1.45-5.19-6.82-2.89-10.52c1.82-2.6,4.7-3.84,7.08-3.44c2.51,0.46,4.83,2.73,4.79,6
	C50.8,44.42,46.92,49.04,41.83,47.52z"/>
<path fill="#2F2F2F" d="M87.5,47.52c4.59-1.45,5.19-6.82,2.88-10.52c-1.81-2.6-4.7-3.84-7.08-3.44c-2.51,0.46-4.82,2.73-4.8,6
	C78.53,44.42,82.41,49.04,87.5,47.52z"/>
<path fill="#2F2F2F" d="M64.74,83.14c-16.06,0-28.09-3.92-35.76-11.65c-8.19-8.25-8.21-17.76-8.2-18.17c0-0.67,0.33-1.31,0.86-1.71
	c0.54-0.4,1.25-0.53,1.89-0.36c0.13,0.03,12.88,3.5,41.25,3.5c28.35,0,41.11-3.46,41.23-3.5c0.64-0.18,1.35-0.05,1.89,0.36
	c0.54,0.41,0.85,1.04,0.86,1.72c0,0.4-0.03,9.91-8.23,18.16C92.85,79.22,80.8,83.14,64.74,83.14z M25.42,56.12
	c1.25,6.62,7.55,22.68,39.32,22.68c31.78,0,38.11-16.05,39.37-22.68c-5.37,1.06-17.95,2.96-39.34,2.96
	C43.37,59.08,30.79,57.19,25.42,56.12z"/>

</g>
</g>
</svg>
