<?xml version="1.0" encoding="UTF-8"?>
<svg xmlns="http://www.w3.org/2000/svg" xmlns:svg="http://www.w3.org/2000/svg" width="128px" height="128px" viewBox="0 0 750 750" style="shape-rendering: geometricPrecision">
  <title>foxcat-lesbian-heart</title>
  <g fill="none">
    <g id="body" transform="translate(0,8.508816)">
      <path id="outline" fill="#ff9437" d="M227.906579,87.6908427 C303.535374,48.6398489 398.330872,32.7854381 512.804599,53.8564005 C545.560576,59.8653664 575.596087,70.9374708 602.462903,86.1209744 C630.354683,64.2471357 659.533716,48.0372055 690,37.491184 C742,19.491184 752,39.491184 742,95.491184 C736.144211,128.283603 730.545599,171.877455 725.204164,226.27274 C751.039563,288.613086 756.817609,361.337947 737.695901,434.165265 C718.989274,505.307678 743.284358,511.074392 743.225532,549.205313 C743.225532,554.207054 742.578448,559.149951 741.284279,564.034004 C722.342348,637.235958 564.747842,694.491184 373.093157,694.491184 C168.614433,694.491184 2.90195627,629.409704 2.90195627,549.205313 C-8.29960895,450.296204 12.8565239,337.343185 67.6021059,243.405026 C66.5739942,140.127016 66.7066256,79.8224017 68,62.491184 C70.1617413,33.5238511 84,-23.508816 137,10.491184 C169.903818,31.5992934 200.206011,57.332513 227.906579,87.6908427 Z"/>
      <path id="stomach-floof" fill="white" d="m 130.76404,508.45284 c 14.29941,6.36722 21.31003,11.97972 32.56986,26.13557 -13.29696,-33.30484 -14.39322,-89.96881 13.68122,-144.85363 32.91338,-64.34482 87.57434,-80.55096 146.5065,-80.14972 62.91359,0.42835 128.61269,39.44116 152.42635,104.49291 24.40944,66.67928 20.55132,124.34977 -0.48903,142.28002 21.22564,-5.44592 25.18294,-7.56864 38.93823,-8.01428 2.89365,46.54282 -29.82516,116.32857 -52.21028,141.99147 -6.78549,7.77907 -78.32115,14.25657 -134.30771,10.15308 -55.98656,-4.10349 -156.12257,-20.30664 -161.52071,-30.73035 -27.18668,-52.49698 -31.1418,-104.12292 -35.59443,-161.30507 z"/>
      <path id="ear-floof-right" fill="white" d="m 86.821327,189.84182 c -2.951536,-27.83002 -6.195892,-84.8663 -1.571836,-119.620354 17.737959,2.729983 79.762999,29.114997 111.380399,65.136254 -15.74992,1.35331 -24.50688,3.03852 -40.07139,-1.33572 1.52671,19.89513 2.2745,41.88299 -9.00276,63.9186 -12.29911,-4.39435 -22.02535,-17.01931 -33.2678,-32.06753 -7.34642,8.68213 -10.58383,15.83298 -27.466613,23.96875 z"/>
      <path id="ear-floof-left" fill="white" d="m 608.41714,149.43651 c 17.6982,-24.04282 102.24252,-61.18817 115.53916,-53.094576 7.68035,4.674986 -7.34642,103.517736 -18.03212,119.546286 -8.34821,-7.68034 -14.02499,-14.35891 -21.37141,-26.38032 -6.67856,8.01427 -14.02498,17.03034 -38.40174,28.04996 -4.34106,-25.71247 -6.57769,-35.68558 -2.3375,-65.44992 -11.5386,3.82448 -23.7089,1.33571 -35.39639,-2.67143 z"/>
      <path id="ear-contour-right" fill="#2f2f2f" d="m 75.638882,23.484626 c -7.058047,20.313074 4.962921,18.307604 19.906475,23.499768 16.508913,5.736051 45.949023,17.283979 79.498343,33.544073 27.21515,13.190162 50.14602,28.648363 58.87299,25.324073 8.72697,-3.32429 -3.65977,-15.470622 -6.01011,-18.161697 C 220.88076,79.646485 149.29663,-2.4670962 109.77265,-4.4837219 94.00497,-5.2882337 81.68059,6.0965762 75.638882,23.484626 Z"/>
      <path id="ear-contour-left" fill="#2f2f2f" d="m 600.99085,97.361893 c 2.92876,3.431327 24.86778,-2.333474 33.88417,-5.426823 13.6505,-4.683223 43.15681,-18.23273 61.62136,-23.394206 15.20519,-4.250373 37.86433,-9.849214 44.55572,-17.605268 5.51594,-6.39358 -1.71708,-21.05348 -16.11929,-22.858713 -14.40222,-1.805233 -45.16642,6.196137 -67.20955,18.254884 -22.04313,12.058748 -44.9725,27.148275 -55.26036,39.789207 -2.90476,3.569139 -4.4008,7.809582 -1.47205,11.240919 z"/>
    </g>
    <g id="eyes" transform="translate(0,8.508816) translate(33,190.49118)">
      <path id="left-eye" d="m 523.3311,109.83385 c -7.39991,34.70761 -36.72804,57.98293 -65.51305,51.95873 -28.98868,-6.09266 -46.4362,-39.1573 -39.17206,-73.864914 7.39992,-34.776069 36.72805,-58.05139 65.64884,-51.958733 28.8529,5.955745 46.36831,38.951935 39.03627,73.864917 z" style="fill:#2f2f2f"/>
      <path id="right-eye" d="M 125.5521,36.726728 C 140.80142,6.4279134 173.70785,-7.9206442 199.0565,4.4257891 224.33827,16.83896 232.56487,51.342235 217.38244,81.574313 202.2,111.80639 169.36045,126.22168 144.0118,113.80851 118.73004,101.39534 110.43654,66.82533 125.5521,36.726728 Z" style="fill:#2f2f2f"/>
    </g>
    <g id="whiskers" fill="#2f2f2f" transform="translate(0,8.508816)">
      <path id="right-bottom-wisker" d="m 517,455.491 c 2.53627,-3.91968 24.1879,8.93954 54,29 29.8121,20.0605 60.6064,34.9719 58,39 -2.60641,4.02808 -42.8053,-5.70076 -70,-24 -27.1947,-18.2992 -44.5363,-40.0803 -42,-44 z"/>
      <path id="right-top-wisker" d="m 525,400.491 c -2,-6 -2,-10 23,-9 25,1 83,16 102,32 4.69918,3.9572 -37.1292,-0.87484 -68,-7 -30.8708,-6.12517 -55,-10 -57,-16 z"/>
      <path id="left-bottom-wisker" d="m 151,403.491 c -19,21 -52,36 -84,53 -32,17 -49.439,8.26343 -14,-13 35.439,-21.2634 84,-43 98,-40 z"/>
      <path id="left-top-wisker" d="m 156,343.491 c -53,-2 -107,5 -116,16 0,3.43817 103,3 116,0 13,-3 8.6364,-15.6741 0,-16 z"/>
    </g>
    <g id="mouth" transform="translate(0,8.508816) translate(33,190.49118)">
      <path d="m 196,176 c 13.33333,47.33333 23,71.33333 29,72 6,0.66667 26.66667,-18 62,-56 27.33333,46 43.66667,71.33333 49,76 5.33333,4.66667 28,-15.66667 68,-61" style="stroke: #2f2f2f; stroke-width: 30; stroke-linecap: round; stroke-linejoin: round"/>
    </g>
    <g transform="translate(0,8.508816)">
      <g transform="translate(13 255)">
        <defs>
          <path d="M523.079 66.934c54.087 54.088 33.802 149.947-23.638 225.507C403 420 266 495 217.379 493.369c-48.621-1.631-209.603-222.173-215.99-313.27C-5 89 20 46 74.858 14.147 142.991-25.411 237 26 284.876 110.508 349 26 468.99 12.847 523.079 66.934z" id="a"/>
        </defs>
        <mask id="b" fill="#fff">
          <use href="#a"/>
        </mask>
        <use fill="#D8D8D8" href="#a"/>
        <g fill-rule="nonzero" mask="url(#b)">
          <path fill="#8A1E04" d="M-123.103-64.33L704.58 66.761l-78.687 496.807-827.682-131.092z"/>
          <path fill="#C54E54" d="M-123.103-64.33L704.58 66.761l-67.446 425.834-827.682-131.092z"/>
          <path fill="#E4ACCF" d="M-123.103-64.33L704.58 66.761l-56.205 354.862-827.683-131.092z"/>
          <path fill="#EDEDEB" d="M-123.103-64.33L704.58 66.761l-44.964 283.89-827.683-131.092z"/>
          <path fill="#D063A6" d="M-123.103-64.33L704.58 66.761l-33.723 212.916-827.683-131.092z"/>
          <path fill="#B75592" d="M-123.103-64.33L704.58 66.761l-22.482 141.944-827.683-131.092z"/>
          <path fill="#A40061" d="M-123.103-64.33L704.58 66.761l-11.24 70.972L-134.345 6.642z"/>
        </g>
      </g>
      <path d="M74.715 319.095c-27.016 25.776-34 56-25 79s44 23 52-3 18-38 51-45 31-48 6-56-56.985-.776-84 25z" fill-opacity=".34" fill="#FFF"/>
    </g>
    <g transform="translate(0,8.508816)">
      <path id="right-arm" fill="#ff9437" stroke="#2f2f2f" stroke-width="15" stroke-linecap="round" stroke-linejoin="round" d="m 20.406724,501.66106 c 28,-5.333 40.67383,-30.91935 69.592919,-54.32856 28.919087,-23.40921 90.773057,-23.09331 118.676407,5.00428 27.90335,28.09759 28.8522,58.81601 15.05109,95.65999 -13.80111,36.84398 -72.40378,65.87442 -133.767235,74.99966"/>
      <path id="left-arm" fill="#ff9437" stroke="#2f2f2f" stroke-width="15" stroke-linecap="round" stroke-linejoin="round" d="m 530.65051,531.0434 c -31.77834,-10.52821 -58.84903,-36.11739 -87.49796,-64.03211 -28.64894,-27.91473 -85.44172,-32.76122 -117.34285,-0.9968 -31.90112,31.76442 -25.38411,79.79324 -3.42169,112.11898 21.96243,32.32574 100.91477,76.11814 173.16882,89.91089"/>
    </g>
  </g>
</svg>
